<?xml version="1.0" encoding="utf-8"?>
<!-- Generator: Adobe Illustrator 19.2.1, SVG Export Plug-In . SVG Version: 6.00 Build 0)  -->
<svg version="1.1" id="Layer_1" xmlns="http://www.w3.org/2000/svg" xmlns:xlink="http://www.w3.org/1999/xlink" x="0px" y="0px"
	 viewBox="0 0 146 26" style="enable-background:new 0 0 146 26;" xml:space="preserve">
<style type="text/css">
	.st0{fill:#FFFFFF;}
	.st1{fill:#1496FF;}
	.st2{fill:#1284EA;}
	.st3{fill:#B4DC00;}
	.st4{fill:#6F2DA8;}
	.st5{fill:#591F91;}
	.st6{fill:#73BE28;}
</style>
<g id="Background">
</g>
<g id="Vertical">
</g>
<g id="Horizontal">
</g>
<g id="Dynatrace_Color">
</g>
<g id="Variants">
	<g>
		<g>
			<g>
				<path class="st0" d="M105.6,6.8h-3.4c-0.9,0-1.6,0.2-2,0.6c-0.4,0.4-0.6,1.1-0.6,2V21h-2V9.2c0-0.9,0.2-1.9,0.6-2.6
					C99.1,5.3,100.8,5,102,5h3.6L105.6,6.8L105.6,6.8z"/>
			</g>
			<g>
				<path class="st0" d="M92.6,19.2c-0.9,0-1.6-0.2-2-0.6c-0.4-0.4-0.6-1-0.6-1.9V6.8h4.2V5H90V0.2h-2v16.5c0,0.9,0.2,1.9,0.6,2.6
					c0.9,1.4,2.5,1.6,3.7,1.6H96v-1.8C96,19.2,92.6,19.2,92.6,19.2z"/>
			</g>
			<path class="st0" d="M40,0.2V5h-4.2c-2.6,0-4.1,0.8-5.1,1.7c-1.5,1.4-1.5,3.5-1.5,3.7c0,0.3,0,4.9,0,5.1c0,0.2,0,2.3,1.5,3.7
				c0.9,0.9,2.5,1.7,5.1,1.7h1.9c1.2,0,2.9-0.3,3.7-1.6c0.5-0.7,0.6-1.7,0.6-2.6V0.2H40z M39.4,18.6c-0.4,0.4-1.1,0.6-2,0.6h-1.8
				c-1.7,0-2.7-0.5-3.3-1.1c-0.7-0.7-1-1.7-1-2.4v-5.3c0-0.7,0.3-1.7,1-2.4c0.6-0.6,1.7-1.1,3.3-1.1H40v9.8
				C40,17.6,39.8,18.2,39.4,18.6z"/>
			<path class="st0" d="M123.8,7.9c0.6-0.6,1.7-1.1,3.3-1.1h4.8V5h-4.6c-2.6,0-4.1,0.8-5.1,1.7c-1.5,1.4-1.5,3.5-1.5,3.7
				c0,0.1,0,5,0,5.1c0,0.2,0,2.3,1.5,3.7c0.9,0.9,2.5,1.7,5.1,1.7h4.6v-1.8h-4.8c-1.7,0-2.7-0.5-3.3-1.1c-0.7-0.7-1-1.7-1-2.4v-5.3
				C122.8,9.6,123,8.6,123.8,7.9z"/>
			<path class="st0" d="M85.9,10.4c0-0.2,0-2.3-1.5-3.7C83.5,5.8,82,5,79.4,5h-4.5v1.8h4.7c1.7,0,2.7,0.5,3.3,1.1
				c0.7,0.7,1,1.7,1,2.4v1.6h-6.4c-1.2,0-2.9,0.3-3.7,1.6c-0.5,0.7-0.6,1.7-0.6,2.6v0.6c0,0.9,0.2,1.9,0.6,2.6
				c0.9,1.4,2.5,1.6,3.7,1.6h4.1c1.2,0,2.9-0.3,3.7-1.6c0.5-0.7,0.6-1.7,0.6-2.6C85.9,16.8,85.9,11.5,85.9,10.4z M83.3,18.6
				c-0.4,0.4-1.1,0.6-2,0.6h-3.5c-0.9,0-1.6-0.2-2-0.6c-0.4-0.4-0.6-1-0.6-1.9v-0.4c0-0.9,0.2-1.6,0.6-1.9s1.1-0.6,2-0.6h6.1v3
				C83.9,17.6,83.7,18.2,83.3,18.6z"/>
			<path class="st0" d="M119.2,10.4c0-0.2,0-2.3-1.5-3.7c-0.9-0.9-2.5-1.7-5.1-1.7h-4.5v1.8h4.7c1.7,0,2.7,0.5,3.3,1.1
				c0.7,0.7,1,1.7,1,2.4v1.6h-6.4c-1.2,0-2.9,0.3-3.7,1.6c-0.5,0.7-0.6,1.7-0.6,2.6v0.6c0,0.9,0.2,1.9,0.6,2.6
				c0.9,1.4,2.5,1.6,3.7,1.6h4.1c1.2,0,2.9-0.3,3.7-1.6c0.5-0.7,0.6-1.7,0.6-2.6C119.2,16.8,119.2,11.5,119.2,10.4z M116.5,18.6
				c-0.4,0.4-1.1,0.6-2,0.6H111c-0.9,0-1.6-0.2-2-0.6c-0.4-0.4-0.6-1-0.6-1.9v-0.4c0-0.9,0.2-1.6,0.6-1.9c0.4-0.4,1.1-0.6,2-0.6h6.1
				v3C117.1,17.6,116.9,18.2,116.5,18.6z"/>
			<polygon class="st0" points="58,5 55.9,5 50.8,18.3 45.7,5 43.6,5 49.8,21 47.9,25.8 50,25.8 			"/>
			<path class="st0" d="M71.6,10.4c0-0.2,0-2.3-1.5-3.7C69.2,5.8,67.7,5,65.3,5h-0.2c-2.4,0-3.9,0.8-4.8,1.7
				c-1.5,1.4-1.5,3.5-1.5,3.7c0,0.3,0,9.7,0,10.6h2V10.4c0-0.7,0.2-1.7,1-2.4c0.6-0.6,1.8-1.1,3.4-1.1c1.6,0,2.8,0.5,3.4,1.1
				c0.7,0.7,1,1.7,1,2.4V21h2C71.6,20.2,71.6,10.7,71.6,10.4z"/>
			<path class="st0" d="M144.4,6.7c-0.9-0.9-2.4-1.7-4.8-1.7h-0.2c-2.4,0-3.9,0.8-4.8,1.7c-1.5,1.4-1.5,3.5-1.5,3.7v5.1
				c0,0.2,0,2.3,1.5,3.7c0.9,0.9,2.4,1.7,4.8,1.7h4.7v-1.8h-4.6c-1.6,0-2.8-0.5-3.4-1.1c-0.7-0.7-1-1.7-1-2.4v-1.9h10.8v-3.3
				C145.8,10.2,145.8,8.1,144.4,6.7z M135.1,11.9v-1.6c0-0.7,0.2-1.7,1-2.4c0.6-0.6,1.8-1.1,3.4-1.1c1.6,0,2.8,0.5,3.4,1.1
				c0.7,0.7,1,1.7,1,2.4v1.6H135.1z"/>
		</g>
		<g>
			<path class="st1" d="M8.7,2.4C8.4,4.1,8,6.7,7.8,9.3C7.4,13.9,7.6,17,7.6,17l-6.5,6.2c0,0-0.5-3.4-0.7-7.3
				c-0.1-2.4-0.2-4.5-0.2-5.8c0-0.1,0-0.1,0-0.2c0-0.1,0.1-0.9,0.9-1.8C2.1,7.1,8.8,1.8,8.7,2.4z"/>
			<path class="st2" d="M8.7,2.4C8.4,4.1,8,6.7,7.8,9.3c0,0-7.2-0.9-7.6,0.9c0-0.1,0.1-1.1,1-2C2.1,7.3,8.8,1.8,8.7,2.4z"/>
			<path class="st3" d="M0.2,9.7c0,0.1,0,0.3,0,0.4c0.1-0.3,0.2-0.5,0.5-0.9C1.2,8.6,2,8.4,2.4,8.4c1.8-0.2,4.3-0.5,7-0.6
				C13.9,7.6,17,8,17,8l6.5-6.2c0,0-3.4-0.6-7.3-1.1c-2.5-0.3-4.8-0.5-6-0.5c-0.1,0-1-0.1-1.8,0.7C7.4,1.8,2.8,6.2,0.9,8
				C0.1,8.8,0.2,9.7,0.2,9.7z"/>
			<path class="st4" d="M23.2,17.6c-1.8,0.2-4.3,0.5-7,0.6C11.7,18.4,8.6,18,8.6,18l-6.5,6.2c0,0,3.4,0.7,7.3,1.1
				c2.4,0.3,4.5,0.4,5.7,0.5c0.1,0,0.2-0.1,0.3-0.1c0.1,0,1-0.2,1.8-1C18.2,23.8,23.7,17.5,23.2,17.6z"/>
			<path class="st5" d="M23.2,17.6c-1.8,0.2-4.3,0.5-7,0.6c0,0,0.5,7.2-1.2,7.5c0.1,0,1.3-0.1,2.1-0.9C18.1,24,23.7,17.5,23.2,17.6z
				"/>
			<path class="st6" d="M15.4,25.8c-0.1,0-0.3,0-0.4,0c0.3-0.1,0.5-0.2,0.9-0.4c0.7-0.5,0.9-1.4,1-1.7c0.3-1.7,0.7-4.3,0.9-6.9
				c0.4-4.6,0.1-7.7,0.1-7.7l6.5-6.2c0,0,0.5,3.4,0.7,7.3c0.2,2.5,0.2,4.8,0.2,6c0,0.1,0.1,1-0.8,1.8c-0.9,0.9-5.5,5.3-7.4,7.1
				C16.4,25.9,15.5,25.8,15.4,25.8z"/>
		</g>
	</g>
</g>
</svg>
